<?xml version="1.0" encoding="utf-8"?>
<!-- Generator: Adobe Illustrator 16.0.0, SVG Export Plug-In . SVG Version: 6.00 Build 0)  -->
<!DOCTYPE svg PUBLIC "-//W3C//DTD SVG 1.1//EN" "http://www.w3.org/Graphics/SVG/1.1/DTD/svg11.dtd">
<svg version="1.1" id="Layer_1" xmlns="http://www.w3.org/2000/svg" xmlns:xlink="http://www.w3.org/1999/xlink" x="0px" y="0px"
	 width="500px" height="69.103px" viewBox="0 0 500 69.103" enable-background="new 0 0 500 69.103" xml:space="preserve">
<g>
	<g>
		<g>
			<g>
				<g>
					<path fill-rule="evenodd" clip-rule="evenodd" d="M34.55,0C15.468,0,0,15.468,0,34.551C0,53.633,15.468,69.103,34.55,69.103
						c19.08,0,34.549-15.47,34.549-34.552C69.099,15.468,53.63,0,34.55,0z M57.148,57.148c-6.035,6.039-14.061,9.362-22.598,9.362
						c-8.536,0-16.562-3.323-22.6-9.362c-6.036-6.036-9.36-14.061-9.36-22.598s3.324-16.563,9.36-22.6
						c6.037-6.036,14.063-9.36,22.6-9.36c8.537,0,16.562,3.325,22.598,9.36c6.036,6.037,9.36,14.063,9.36,22.6
						S63.184,51.112,57.148,57.148z"/>
				</g>
			</g>
			<g>
				<g>
					<path fill-rule="evenodd" clip-rule="evenodd" d="M57.465,26.188c-1.311-2.121-3.438-6.107-5.142-9.317
						c-1.812-3.412-5.438-3.606-10.062-5.907c-2.713-1.351-2.124,0-7.712,0c-5.59,0-5.001-1.351-7.713,0
						c-4.624,2.301-8.248,2.496-10.062,5.907c-1.703,3.209-3.831,7.196-5.141,9.317c-1.677,2.712-1.53,2.992-0.503,4.254
						c0.838,1.028,3.572,2.523,4.317,2.802c1.621,0.612,2.095,0.468,3.617-1.661c1.041-1.454,1.957-2.897,1.957-2.897
						s1.731,11.797-0.083,24.583c-0.604,4.251-0.889,3.703,2.376,4.558c2.453,0.643,7.824,0.909,11.234,0.909
						c3.409,0,8.779-0.267,11.234-0.909c3.261-0.854,2.979-0.307,2.374-4.558c-1.814-12.785-0.083-24.583-0.083-24.583
						s0.918,1.444,1.955,2.897c1.525,2.129,1.997,2.272,3.619,1.661c0.748-0.279,3.479-1.774,4.318-2.802
						C58.995,29.181,59.142,28.901,57.465,26.188z M34.55,17.012c-2.559,0-4.726-1.761-5.47-4.191
						c0.123,0.021,0.266,0.05,0.414,0.082c0.946,0.191,2.376,0.482,5.056,0.482c2.679,0,4.108-0.291,5.055-0.482
						c0.147-0.031,0.29-0.06,0.413-0.082C39.274,15.251,37.107,17.012,34.55,17.012z"/>
				</g>
			</g>
		</g>
	</g>
	<g>
		<g>
			<path d="M486.81,19.405v-0.774h5.525v0.774h-2.301v6.137h-0.921v-6.137H486.81z"/>
			<path d="M494.377,18.631l2.178,5.807l2.188-5.807H500v6.911h-0.871v-5.75h-0.019l-2.158,5.75h-0.783l-2.159-5.75h-0.019v5.75
				h-0.87v-6.911H494.377z"/>
		</g>
	</g>
	<g>
		<g>
			<path d="M106.506,19.552c1.415,0.616,2.734,1.536,3.964,2.764l-3.687,3.687c-1.229-1.475-2.948-2.212-5.159-2.212
				c-2.212,0-3.624,0.521-4.238,1.566c-0.613,1.044-0.613,1.935,0,2.672c0.614,0.737,2.026,1.29,4.238,1.658
				c2.335,0.246,4.453,1.013,6.356,2.304c1.906,1.29,2.856,3.347,2.856,6.171c0,2.212-1.016,4.117-3.05,5.715
				c-2.032,1.596-4.4,2.396-7.104,2.396c-2.567,0-4.711-0.369-6.43-1.106c-1.722-0.737-3.196-1.719-4.424-2.949l3.687-3.686
				c1.228,1.475,3.315,2.336,6.265,2.58c2.456,0,3.989-0.521,4.598-1.565c0.607-1.044,0.607-2.09,0-3.133
				c-0.608-1.043-2.142-1.689-4.598-1.935c-2.212-0.246-4.239-0.922-6.081-2.027c-1.843-1.106-2.764-3.01-2.764-5.713
				c0-2.444,1.047-4.406,3.142-5.887c2.095-1.48,4.248-2.221,6.46-2.221C103.105,18.631,105.093,18.938,106.506,19.552z"/>
			<path d="M119.982,46.272l11.056-27.642h5.528l11.038,27.623l-5.877,0.019l-1.66-4.239h-12.529l-1.658,4.239H119.982z
				 M133.949,26.002l-4.201,10.502h8.293L133.949,26.002z"/>
			<path d="M162.976,18.631v22.48h14.741v5.161h-20.27V18.631H162.976z"/>
			<path d="M210.485,18.631v5.16h-9.213v22.482h-5.529V23.791h-9.213v-5.16H210.485z"/>
			<path d="M218.632,18.631h6.488l6.41,9.03l6.562-9.03h6.339l-10.136,13.821v13.821h-5.528V32.452L218.632,18.631z"/>
			<path d="M256.79,42.3c-2.648-2.636-3.971-5.936-3.971-9.905c0.012-3.88,1.339-7.146,3.98-9.793
				c2.641-2.648,5.916-3.971,9.82-3.971c3.946,0,7.329,1.229,10.154,3.685l-3.687,4.036c-1.879-1.475-4.033-2.211-6.468-2.211
				c-2.48,0.013-4.48,0.787-5.997,2.321c-1.518,1.537-2.275,3.502-2.275,5.898c0.011,2.567,0.78,4.607,2.304,6.116
				c1.522,1.513,3.525,2.267,6.008,2.267c2.48,0,4.623-0.729,6.429-2.19l3.687,4.034c-2.812,2.456-6.197,3.687-10.154,3.687
				C262.715,46.258,259.438,44.936,256.79,42.3z"/>
			<path d="M293.492,18.631v16.031c0,2.089,0.613,3.624,1.842,4.606c1.229,0.983,2.766,1.474,4.607,1.474
				c1.844,0,3.378-0.49,4.607-1.474c1.227-0.982,1.842-2.518,1.842-4.606V18.631h5.528v17.506c0,2.825-1.137,5.222-3.408,7.187
				c-2.274,1.966-5.129,2.949-8.569,2.949s-6.296-0.983-8.569-2.949c-2.271-1.965-3.408-4.361-3.408-7.187V18.631H293.492z"/>
			<path d="M338.512,19.552c1.412,0.616,2.733,1.536,3.962,2.764l-3.687,3.687c-1.229-1.475-2.946-2.212-5.158-2.212
				s-3.624,0.521-4.237,1.566c-0.616,1.044-0.616,1.935,0,2.672c0.613,0.737,2.025,1.29,4.237,1.658
				c2.333,0.246,4.453,1.013,6.357,2.304c1.903,1.29,2.856,3.347,2.856,6.171c0,2.212-1.017,4.117-3.052,5.715
				c-2.033,1.596-4.4,2.396-7.104,2.396c-2.565,0-4.711-0.369-6.429-1.106c-1.721-0.737-3.195-1.719-4.424-2.949l3.687-3.686
				c1.227,1.475,3.316,2.336,6.263,2.58c2.46,0,3.989-0.521,4.599-1.565c0.608-1.044,0.608-2.09,0-3.133
				c-0.609-1.043-2.139-1.689-4.599-1.935c-2.209-0.246-4.237-0.922-6.079-2.027c-1.845-1.106-2.766-3.01-2.766-5.713
				c0-2.444,1.048-4.406,3.143-5.887c2.095-1.48,4.249-2.221,6.46-2.221C335.108,18.631,337.1,18.938,338.512,19.552z"/>
			<path d="M375.997,18.631v5.16h-9.214v22.482h-5.528V23.791h-9.212v-5.16H375.997z"/>
			<path d="M388.329,42.3c-2.642-2.646-3.962-5.93-3.962-9.848c0-3.931,1.32-7.218,3.962-9.859c2.641-2.641,5.928-3.962,9.857-3.962
				c3.932,0,7.219,1.321,9.859,3.962c2.64,2.641,3.962,5.928,3.962,9.859s-1.322,7.216-3.962,9.859
				c-2.641,2.641-5.928,3.962-9.859,3.962C394.256,46.272,390.969,44.948,388.329,42.3z M398.207,41.111
				c2.443,0,4.433-0.828,5.967-2.487c1.536-1.657,2.306-3.716,2.306-6.172c0-2.458-0.77-4.516-2.306-6.174
				c-1.534-1.658-3.534-2.487-6.006-2.487c-2.443,0-4.433,0.829-5.97,2.487c-1.536,1.658-2.303,3.716-2.303,6.174
				c0,2.456,0.767,4.515,2.303,6.172C393.735,40.283,395.735,41.111,398.207,41.111z"/>
			<path d="M421.778,46.272V18.631h1.842l11.978,13.636l11.996-13.636h1.842v27.642h-5.526l-0.021-16.033l-8.291,9.214l-8.293-9.214
				v16.033H421.778z"/>
			<path d="M475.57,19.552c1.412,0.616,2.733,1.536,3.962,2.764l-3.687,3.687c-1.229-1.475-2.949-2.212-5.161-2.212
				c-2.209,0-3.624,0.521-4.237,1.566c-0.613,1.044-0.613,1.935,0,2.672s2.028,1.29,4.237,1.658c2.336,0.246,4.454,1.013,6.36,2.304
				c1.901,1.29,2.854,3.347,2.854,6.171c0,2.212-1.015,4.117-3.048,5.715c-2.035,1.596-4.402,2.396-7.104,2.396
				c-2.57,0-4.713-0.369-6.434-1.106c-1.718-0.737-3.192-1.719-4.421-2.949l3.684-3.686c1.229,1.475,3.319,2.336,6.269,2.58
				c2.455,0,3.989-0.521,4.596-1.565c0.608-1.044,0.608-2.09,0-3.133c-0.606-1.043-2.141-1.689-4.596-1.935
				c-2.212-0.246-4.24-0.922-6.084-2.027c-1.84-1.106-2.764-3.01-2.764-5.713c0-2.444,1.048-4.406,3.143-5.887
				c2.095-1.48,4.246-2.221,6.458-2.221C472.166,18.631,474.157,18.938,475.57,19.552z"/>
		</g>
	</g>
</g>
</svg>
