<?xml version="1.0" encoding="utf-8"?>
<!-- Generator: Adobe Illustrator 16.0.0, SVG Export Plug-In . SVG Version: 6.00 Build 0)  -->
<!DOCTYPE svg PUBLIC "-//W3C//DTD SVG 1.1//EN" "http://www.w3.org/Graphics/SVG/1.1/DTD/svg11.dtd">
<svg version="1.1" id="Layer_1" xmlns="http://www.w3.org/2000/svg" xmlns:xlink="http://www.w3.org/1999/xlink" x="0px" y="0px"
	 width="283.464px" height="39.45px" viewBox="0 0 283.464 39.45" enable-background="new 0 0 283.464 39.45" xml:space="preserve">
<g>
	<g>
		<g>
			<g>
				<g>
					<path fill-rule="evenodd" clip-rule="evenodd" fill="#FFFFFF" d="M19.724,0C8.831,0,0,8.831,0,19.725
						C0,30.62,8.831,39.45,19.724,39.45c10.892,0,19.723-8.83,19.723-19.726C39.447,8.831,30.616,0,19.724,0z M32.625,32.626
						c-3.446,3.445-8.026,5.346-12.9,5.346c-4.873,0-9.454-1.9-12.901-5.346c-3.445-3.445-5.344-8.028-5.344-12.901
						c0-4.874,1.898-9.454,5.344-12.902c3.447-3.445,8.028-5.344,12.901-5.344c4.874,0,9.454,1.898,12.9,5.344
						c3.445,3.448,5.343,8.028,5.343,12.902C37.967,24.598,36.07,29.181,32.625,32.626z"/>
				</g>
			</g>
			<g>
				<g>
					<path fill-rule="evenodd" clip-rule="evenodd" fill="#FFFFFF" d="M32.805,14.951c-0.747-1.212-1.963-3.487-2.935-5.318
						c-1.034-1.949-3.104-2.059-5.745-3.373c-1.548-0.771-1.211,0-4.401,0c-3.191,0-2.855-0.771-4.403,0
						c-2.64,1.314-4.708,1.424-5.745,3.373c-0.971,1.831-2.187,4.106-2.934,5.318c-0.958,1.548-0.874,1.709-0.287,2.429
						c0.478,0.586,2.039,1.439,2.464,1.599c0.927,0.351,1.196,0.268,2.065-0.947c0.594-0.83,1.117-1.654,1.117-1.654
						s0.989,6.734-0.048,14.034c-0.344,2.427-0.507,2.112,1.357,2.601c1.4,0.365,4.466,0.519,6.413,0.519
						c1.945,0,5.012-0.153,6.414-0.519c1.86-0.488,1.699-0.174,1.354-2.601c-1.036-7.3-0.047-14.034-0.047-14.034
						s0.525,0.824,1.115,1.654c0.871,1.215,1.141,1.298,2.066,0.947c0.427-0.159,1.986-1.013,2.465-1.599
						C33.678,16.66,33.763,16.499,32.805,14.951z M19.724,9.712c-1.461,0-2.696-1.005-3.121-2.392
						c0.069,0.012,0.149,0.027,0.234,0.045c0.541,0.11,1.356,0.275,2.887,0.275c1.528,0,2.345-0.165,2.886-0.275
						c0.084-0.018,0.165-0.033,0.235-0.045C22.42,8.707,21.184,9.712,19.724,9.712z"/>
				</g>
			</g>
		</g>
	</g>
	<g>
		<g>
			<path fill="#FFFFFF" d="M275.935,11.078v-0.442h3.154v0.442h-1.312v3.503h-0.527v-3.503H275.935z"/>
			<path fill="#FFFFFF" d="M280.253,10.636l1.244,3.316l1.25-3.316h0.717v3.945h-0.496v-3.282h-0.012l-1.23,3.282h-0.449
				l-1.23-3.282h-0.012v3.282h-0.496v-3.945H280.253z"/>
		</g>
	</g>
	<g>
		<g>
			<path fill="#FFFFFF" d="M60.801,11.163c0.809,0.35,1.562,0.875,2.264,1.577l-2.104,2.104c-0.702-0.842-1.684-1.263-2.946-1.263
				s-2.068,0.297-2.419,0.895c-0.35,0.597-0.35,1.104,0,1.524c0.351,0.421,1.156,0.737,2.419,0.948
				c1.334,0.14,2.543,0.578,3.629,1.313c1.09,0.737,1.632,1.912,1.632,3.522c0,1.263-0.58,2.353-1.742,3.265
				c-1.16,0.909-2.512,1.365-4.056,1.365c-1.465,0-2.688-0.209-3.67-0.629c-0.982-0.422-1.824-0.983-2.524-1.684l2.104-2.104
				c0.702,0.842,1.893,1.333,3.576,1.471c1.402,0,2.277-0.295,2.625-0.893c0.347-0.596,0.347-1.192,0-1.788
				c-0.348-0.596-1.223-0.964-2.625-1.105c-1.263-0.14-2.419-0.524-3.472-1.156c-1.052-0.631-1.577-1.719-1.577-3.261
				c0-1.396,0.598-2.516,1.794-3.361c1.195-0.846,2.425-1.269,3.688-1.269C58.86,10.636,59.997,10.812,60.801,11.163z"/>
			<path fill="#FFFFFF" d="M68.495,26.415l6.312-15.779h3.156l6.302,15.771l-3.355,0.008l-0.947-2.419h-7.153l-0.946,2.419H68.495z
				 M76.468,14.845l-2.397,5.996h4.733L76.468,14.845z"/>
			<path fill="#FFFFFF" d="M93.04,10.636v12.833h8.416v2.946H89.883V10.636H93.04z"/>
			<path fill="#FFFFFF" d="M120.161,10.636v2.946h-5.259v12.833h-3.156V13.582h-5.26v-2.946H120.161z"/>
			<path fill="#FFFFFF" d="M124.812,10.636h3.703l3.66,5.155l3.747-5.155h3.618l-5.785,7.891v7.889h-3.157v-7.889L124.812,10.636z"
				/>
			<path fill="#FFFFFF" d="M146.593,24.149c-1.51-1.507-2.266-3.391-2.266-5.654c0.008-2.217,0.766-4.081,2.273-5.592
				c1.508-1.512,3.375-2.268,5.605-2.268c2.25,0,4.182,0.702,5.795,2.104l-2.105,2.303c-1.068-0.841-2.301-1.26-3.689-1.26
				c-1.416,0.006-2.561,0.448-3.426,1.323c-0.865,0.877-1.297,2-1.297,3.367c0.008,1.465,0.447,2.631,1.312,3.492
				c0.869,0.862,2.014,1.295,3.43,1.295s2.641-0.417,3.67-1.251l2.105,2.301c-1.605,1.404-3.537,2.104-5.795,2.104
				C149.976,26.407,148.109,25.652,146.593,24.149z"/>
			<path fill="#FFFFFF" d="M167.548,10.636v9.153c0,1.192,0.35,2.067,1.049,2.63c0.701,0.562,1.578,0.842,2.633,0.842
				c1.049,0,1.926-0.279,2.627-0.842c0.699-0.562,1.055-1.438,1.055-2.63v-9.153h3.154v9.993c0,1.612-0.648,2.981-1.947,4.103
				c-1.299,1.125-2.926,1.684-4.889,1.684c-1.967,0-3.596-0.559-4.895-1.684c-1.297-1.121-1.947-2.49-1.947-4.103v-9.993H167.548z"
				/>
			<path fill="#FFFFFF" d="M193.25,11.163c0.805,0.35,1.557,0.875,2.262,1.577l-2.105,2.104c-0.703-0.842-1.684-1.263-2.945-1.263
				c-1.264,0-2.07,0.297-2.42,0.895c-0.35,0.597-0.35,1.104,0,1.524s1.156,0.737,2.42,0.948c1.332,0.14,2.541,0.578,3.631,1.313
				c1.084,0.737,1.627,1.912,1.627,3.522c0,1.263-0.578,2.353-1.742,3.265c-1.16,0.909-2.51,1.365-4.055,1.365
				c-1.463,0-2.688-0.209-3.67-0.629c-0.98-0.422-1.822-0.983-2.525-1.684l2.104-2.104c0.701,0.842,1.896,1.333,3.576,1.471
				c1.404,0,2.277-0.295,2.627-0.893c0.346-0.596,0.346-1.192,0-1.788c-0.35-0.596-1.223-0.964-2.627-1.105
				c-1.258-0.14-2.42-0.524-3.469-1.156c-1.055-0.631-1.578-1.719-1.578-3.261c0-1.396,0.598-2.516,1.793-3.361
				c1.197-0.846,2.424-1.269,3.686-1.269C191.306,10.636,192.443,10.812,193.25,11.163z"/>
			<path fill="#FFFFFF" d="M214.646,10.636v2.946h-5.258v12.833h-3.158V13.582h-5.26v-2.946H214.646z"/>
			<path fill="#FFFFFF" d="M221.687,24.149c-1.51-1.511-2.262-3.387-2.262-5.623c0-2.244,0.752-4.12,2.262-5.629
				c1.508-1.506,3.383-2.262,5.625-2.262c2.246,0,4.123,0.756,5.629,2.262c1.506,1.509,2.262,3.385,2.262,5.629
				s-0.756,4.12-2.262,5.627c-1.506,1.511-3.383,2.262-5.629,2.262C225.07,26.415,223.195,25.66,221.687,24.149z M227.324,23.469
				c1.396,0,2.533-0.472,3.406-1.42c0.877-0.944,1.318-2.12,1.318-3.522s-0.441-2.578-1.318-3.524
				c-0.873-0.946-2.018-1.42-3.426-1.42c-1.396,0-2.533,0.474-3.41,1.42s-1.314,2.122-1.314,3.524s0.438,2.578,1.314,3.522
				C224.771,22.997,225.916,23.469,227.324,23.469z"/>
			<path fill="#FFFFFF" d="M240.781,26.415V10.636h1.053l6.838,7.784l6.848-7.784h1.051v15.779h-3.156l-0.012-9.151l-4.73,5.261
				l-4.736-5.261v9.151H240.781z"/>
			<path fill="#FFFFFF" d="M271.488,11.163c0.807,0.35,1.562,0.875,2.262,1.577l-2.104,2.104c-0.699-0.842-1.684-1.263-2.945-1.263
				c-1.26,0-2.07,0.297-2.42,0.895c-0.35,0.597-0.35,1.104,0,1.524s1.16,0.737,2.42,0.948c1.332,0.14,2.545,0.578,3.629,1.313
				c1.086,0.737,1.633,1.912,1.633,3.522c0,1.263-0.582,2.353-1.742,3.265c-1.16,0.909-2.514,1.365-4.055,1.365
				c-1.469,0-2.691-0.209-3.67-0.629c-0.984-0.422-1.826-0.983-2.525-1.684l2.104-2.104c0.701,0.842,1.893,1.333,3.576,1.471
				c1.404,0,2.277-0.295,2.623-0.893c0.35-0.596,0.35-1.192,0-1.788c-0.346-0.596-1.219-0.964-2.623-1.105
				c-1.264-0.14-2.42-0.524-3.473-1.156c-1.051-0.631-1.578-1.719-1.578-3.261c0-1.396,0.598-2.516,1.793-3.361
				c1.197-0.846,2.428-1.269,3.689-1.269C269.546,10.636,270.683,10.812,271.488,11.163z"/>
		</g>
	</g>
</g>
</svg>
